<svg version="1.1" id="Layer_1" xmlns="http://www.w3.org/2000/svg" xmlns:xlink="http://www.w3.org/1999/xlink" x="0px" y="0px"
	 width="100%" viewBox="0 0 192 192" enable-background="new 0 0 192 192" xml:space="preserve">
<path fill="#FF8E17" opacity="1.000000" stroke="none" 
	d="
M1.000001,169.000000 
	C1.000000,121.312439 1.000000,73.624878 1.250943,25.806732 
	C1.966581,25.228140 2.628411,24.866051 2.866693,24.319357 
	C7.112236,14.578705 14.179477,7.643339 23.686121,3.041810 
	C24.307852,2.740873 24.570385,1.697842 25.000000,1.000000 
	C72.687561,1.000000 120.375122,1.000000 168.192078,1.261757 
	C168.768066,1.983491 169.132004,2.677471 169.673492,2.868663 
	C179.177002,6.224227 185.589813,12.910109 190.269043,21.589172 
	C190.670502,22.333796 192.066177,22.542397 193.000000,23.000000 
	C193.000000,72.020897 193.000000,121.041786 192.747650,170.190384 
	C192.096191,170.612686 191.519043,170.819519 191.324158,171.214798 
	C186.993942,179.997009 180.846207,186.928955 171.688568,190.919739 
	C171.241730,191.114487 171.219803,192.284271 171.000000,193.000000 
	C121.979103,193.000000 72.958206,193.000000 23.808105,192.759399 
	C23.150967,191.894333 22.744814,191.052246 22.076662,190.678360 
	C13.388573,185.816605 6.329309,179.501556 2.872446,169.812042 
	C2.716313,169.374390 1.645035,169.263229 1.000001,169.000000 
M54.062695,107.484619 
	C54.062695,94.759186 54.062695,82.033760 54.062695,69.257294 
	C51.052662,69.257294 48.802574,69.257294 46.032955,69.257294 
	C46.032955,74.905479 46.032955,80.290665 46.032955,86.278458 
	C44.659618,85.657211 43.954758,85.346031 43.256248,85.021202 
	C35.135380,81.244644 27.043144,84.226227 24.428024,92.724388 
	C23.103411,97.028885 22.732687,101.946297 23.246151,106.436172 
	C24.692202,119.080864 34.406845,123.755089 44.183830,118.362862 
	C48.021248,119.160286 50.717041,119.720482 54.062702,120.415718 
	C54.062702,115.721802 54.062702,112.098969 54.062695,107.484619 
M87.472107,85.822029 
	C86.565872,86.544647 85.529648,87.152504 84.774193,88.008232 
	C79.289391,94.221039 78.759224,101.475807 80.837585,109.045769 
	C82.454712,114.935829 86.348167,118.809334 92.454353,120.102936 
	C100.107399,121.724243 106.971298,118.829063 110.426338,112.636696 
	C114.502296,105.331474 113.681755,94.501869 108.612144,88.692749 
	C103.718895,83.085724 96.265831,81.898384 87.472107,85.822029 
M166.063858,111.871353 
	C166.063858,104.647949 166.063858,97.424545 166.063858,90.278015 
	C168.265610,90.045845 169.883728,89.875214 171.677765,89.686035 
	C171.677765,87.753418 171.677765,86.039192 171.677765,84.251175 
	C169.629135,84.041328 167.870285,83.861168 165.971542,83.666672 
	C165.804825,80.817024 165.653732,78.234383 165.490692,75.447601 
	C162.789352,75.447601 160.524658,75.447601 157.986343,75.447601 
	C157.791855,78.237991 157.610321,80.842369 157.414658,83.649544 
	C155.558731,83.870529 153.827499,84.076660 151.804520,84.317535 
	C151.897537,86.344200 151.976257,88.059097 152.049591,89.656570 
	C154.197510,89.991974 155.782623,90.239487 157.687302,90.536911 
	C157.687302,96.969566 157.637772,103.108154 157.698624,109.245651 
	C157.795776,119.045563 162.404007,122.370110 171.837570,119.407761 
	C171.837570,117.679474 171.837570,115.918068 171.837570,114.433800 
	C169.835236,113.777451 168.155579,113.226883 166.063858,111.871353 
M138.804382,103.498581 
	C138.804382,108.916801 138.804382,114.335022 138.804382,119.651108 
	C141.891449,119.651108 144.143097,119.651108 146.445908,119.651108 
	C146.445908,107.632462 146.445908,95.942596 146.445908,84.312271 
	C143.752670,84.312271 141.498016,84.312271 138.804352,84.312271 
	C138.804352,90.579010 138.804352,96.539131 138.804382,103.498581 
M69.626640,112.031982 
	C66.741463,111.432137 63.905224,111.695854 63.355045,115.041580 
	C63.107231,116.548592 64.351257,119.335793 65.573288,119.793465 
	C67.180138,120.395233 70.848625,119.696579 71.115486,118.804642 
	C71.687157,116.893852 70.644859,114.500191 69.626640,112.031982 
M129.235397,116.428886 
	C129.246780,113.021561 127.316597,111.292778 124.198166,111.962021 
	C122.648102,112.294678 120.547745,114.119064 120.340332,115.513222 
	C120.132149,116.912491 121.610840,119.381943 122.984482,120.022652 
	C125.644234,121.263229 128.232819,120.496140 129.235397,116.428886 
M138.819229,76.705711 
	C142.569412,79.869179 146.460083,79.369247 147.131989,75.584099 
	C147.658737,72.616653 146.259781,70.586472 143.311646,70.436974 
	C139.670624,70.252342 137.806854,72.169212 138.819229,76.705711 
z"/>
<path fill="#000000" opacity="1.000000" stroke="none" 
	d="
M24.531307,1.000000 
	C24.570385,1.697842 24.307852,2.740873 23.686121,3.041810 
	C14.179477,7.643339 7.112236,14.578705 2.866693,24.319357 
	C2.628411,24.866051 1.966581,25.228140 1.250943,25.338076 
	C1.000000,17.073662 1.000000,9.147325 1.000000,1.000000 
	C8.686132,1.000000 16.374374,1.000000 24.531307,1.000000 
z"/>
<path fill="#000000" opacity="1.000000" stroke="none" 
	d="
M193.000000,22.531216 
	C192.066177,22.542397 190.670502,22.333796 190.269043,21.589172 
	C185.589813,12.910109 179.177002,6.224227 169.673492,2.868663 
	C169.132004,2.677471 168.768066,1.983491 168.660736,1.261757 
	C176.923065,1.000000 184.846130,1.000000 193.000000,1.000000 
	C193.000000,8.019133 193.000000,15.040784 193.000000,22.531216 
z"/>
<path fill="#000000" opacity="1.000000" stroke="none" 
	d="
M1.000001,169.468689 
	C1.645035,169.263229 2.716313,169.374390 2.872446,169.812042 
	C6.329309,179.501556 13.388573,185.816605 22.076662,190.678360 
	C22.744814,191.052246 23.150967,191.894333 23.339447,192.759399 
	C15.737160,193.000000 8.474319,193.000000 1.000000,193.000000 
	C1.000000,185.313751 1.000000,177.625565 1.000001,169.468689 
z"/>
<path fill="#000000" opacity="1.000000" stroke="none" 
	d="
M171.468781,193.000000 
	C171.219803,192.284271 171.241730,191.114487 171.688568,190.919739 
	C180.846207,186.928955 186.993942,179.997009 191.324158,171.214798 
	C191.519043,170.819519 192.096191,170.612686 192.747650,170.659042 
	C193.000000,178.259567 193.000000,185.519135 193.000000,193.000000 
	C185.980728,193.000000 178.959152,193.000000 171.468781,193.000000 
z"/>
<path fill="#FFFBF7" opacity="1.000000" stroke="none" 
	d="
M54.062698,107.980377 
	C54.062702,112.098969 54.062702,115.721802 54.062702,120.415718 
	C50.717041,119.720482 48.021248,119.160286 44.183830,118.362862 
	C34.406845,123.755089 24.692202,119.080864 23.246151,106.436172 
	C22.732687,101.946297 23.103411,97.028885 24.428024,92.724388 
	C27.043144,84.226227 35.135380,81.244644 43.256248,85.021202 
	C43.954758,85.346031 44.659618,85.657211 46.032955,86.278458 
	C46.032955,80.290665 46.032955,74.905479 46.032955,69.257294 
	C48.802574,69.257294 51.052662,69.257294 54.062695,69.257294 
	C54.062695,82.033760 54.062695,94.759186 54.062698,107.980377 
M33.704350,92.192902 
	C29.884850,97.611549 30.106316,103.490776 32.190029,109.335136 
	C33.540318,113.122414 36.742668,114.593338 40.657120,113.724586 
	C44.363514,112.902008 46.314377,110.554443 46.061623,106.532982 
	C45.894890,103.880127 46.040401,101.208206 46.029942,98.544884 
	C45.999218,90.723053 41.364075,88.008270 33.704350,92.192902 
z"/>
<path fill="#FFFBF6" opacity="1.000000" stroke="none" 
	d="
M87.789337,85.624031 
	C96.265831,81.898384 103.718895,83.085724 108.612144,88.692749 
	C113.681755,94.501869 114.502296,105.331474 110.426338,112.636696 
	C106.971298,118.829063 100.107399,121.724243 92.454353,120.102936 
	C86.348167,118.809334 82.454712,114.935829 80.837585,109.045769 
	C78.759224,101.475807 79.289391,94.221039 84.774193,88.008232 
	C85.529648,87.152504 86.565872,86.544647 87.789337,85.624031 
M87.930473,104.180969 
	C88.300072,105.790451 88.152702,107.929947 89.146591,108.899361 
	C91.232231,110.933624 93.914337,113.652252 96.358276,113.659004 
	C98.804588,113.665756 102.917793,111.070358 103.371170,108.980194 
	C104.373123,104.361000 104.280479,99.151604 103.106956,94.574593 
	C102.585686,92.541466 98.359604,90.274048 95.830276,90.291603 
	C93.554947,90.307396 90.572777,92.869370 89.242157,95.105507 
	C87.924492,97.319847 88.281815,100.530914 87.930473,104.180969 
z"/>
<path fill="#FFFBF6" opacity="1.000000" stroke="none" 
	d="
M166.269897,112.273834 
	C168.155579,113.226883 169.835236,113.777451 171.837570,114.433800 
	C171.837570,115.918068 171.837570,117.679474 171.837570,119.407761 
	C162.404007,122.370110 157.795776,119.045563 157.698624,109.245651 
	C157.637772,103.108154 157.687302,96.969566 157.687302,90.536911 
	C155.782623,90.239487 154.197510,89.991974 152.049591,89.656570 
	C151.976257,88.059097 151.897537,86.344200 151.804520,84.317535 
	C153.827499,84.076660 155.558731,83.870529 157.414658,83.649544 
	C157.610321,80.842369 157.791855,78.237991 157.986343,75.447601 
	C160.524658,75.447601 162.789352,75.447601 165.490692,75.447601 
	C165.653732,78.234383 165.804825,80.817024 165.971542,83.666672 
	C167.870285,83.861168 169.629135,84.041328 171.677765,84.251175 
	C171.677765,86.039192 171.677765,87.753418 171.677765,89.686035 
	C169.883728,89.875214 168.265610,90.045845 166.063858,90.278015 
	C166.063858,97.424545 166.063858,104.647949 166.269897,112.273834 
z"/>
<path fill="#FFFAF5" opacity="1.000000" stroke="none" 
	d="
M138.804367,102.998917 
	C138.804352,96.539131 138.804352,90.579010 138.804352,84.312271 
	C141.498016,84.312271 143.752670,84.312271 146.445908,84.312271 
	C146.445908,95.942596 146.445908,107.632462 146.445908,119.651108 
	C144.143097,119.651108 141.891449,119.651108 138.804382,119.651108 
	C138.804382,114.335022 138.804382,108.916801 138.804367,102.998917 
z"/>
<path fill="#FFF8F0" opacity="1.000000" stroke="none" 
	d="
M69.945076,112.168129 
	C70.644859,114.500191 71.687157,116.893852 71.115486,118.804642 
	C70.848625,119.696579 67.180138,120.395233 65.573288,119.793465 
	C64.351257,119.335793 63.107231,116.548592 63.355045,115.041580 
	C63.905224,111.695854 66.741463,111.432137 69.945076,112.168129 
z"/>
<path fill="#FFF8F0" opacity="1.000000" stroke="none" 
	d="
M129.199066,116.773834 
	C128.232819,120.496140 125.644234,121.263229 122.984482,120.022652 
	C121.610840,119.381943 120.132149,116.912491 120.340332,115.513222 
	C120.547745,114.119064 122.648102,112.294678 124.198166,111.962021 
	C127.316597,111.292778 129.246780,113.021561 129.199066,116.773834 
z"/>
<path fill="#FFF7EE" opacity="1.000000" stroke="none" 
	d="
M138.672028,76.360512 
	C137.806854,72.169212 139.670624,70.252342 143.311646,70.436974 
	C146.259781,70.586472 147.658737,72.616653 147.131989,75.584099 
	C146.460083,79.369247 142.569412,79.869179 138.672028,76.360512 
z"/>
<path fill="#FF921E" opacity="1.000000" stroke="none" 
	d="
M33.993599,91.925903 
	C41.364075,88.008270 45.999218,90.723053 46.029942,98.544884 
	C46.040401,101.208206 45.894890,103.880127 46.061623,106.532982 
	C46.314377,110.554443 44.363514,112.902008 40.657120,113.724586 
	C36.742668,114.593338 33.540318,113.122414 32.190029,109.335136 
	C30.106316,103.490776 29.884850,97.611549 33.993599,91.925903 
z"/>
<path fill="#FF921E" opacity="1.000000" stroke="none" 
	d="
M87.917465,103.742882 
	C88.281815,100.530914 87.924492,97.319847 89.242157,95.105507 
	C90.572777,92.869370 93.554947,90.307396 95.830276,90.291603 
	C98.359604,90.274048 102.585686,92.541466 103.106956,94.574593 
	C104.280479,99.151604 104.373123,104.361000 103.371170,108.980194 
	C102.917793,111.070358 98.804588,113.665756 96.358276,113.659004 
	C93.914337,113.652252 91.232231,110.933624 89.146591,108.899361 
	C88.152702,107.929947 88.300072,105.790451 87.917465,103.742882 
z"/>
</svg>