<svg version="1.1" id="Layer_1" xmlns="http://www.w3.org/2000/svg" xmlns:xlink="http://www.w3.org/1999/xlink" x="0px" y="0px"
	 width="100%" viewBox="0 0 496 496" enable-background="new 0 0 496 496" xml:space="preserve">
<path fill="#000000" opacity="1.000000" stroke="none" 
	d="
M252.179016,224.456879 
	C252.736374,242.975235 245.032211,254.208786 229.685638,257.774048 
	C216.012421,260.950592 202.260437,255.571945 195.808395,244.524033 
	C189.153259,233.128433 190.418198,218.300369 199.283432,208.793961 
	C207.701553,199.767014 218.485687,197.951767 230.002502,200.466721 
	C242.557724,203.208450 249.594269,211.611710 252.179016,224.456879 
M223.955307,212.573166 
	C215.365707,212.206940 208.970993,216.096420 206.664246,223.090195 
	C204.185272,230.606125 206.547333,238.614716 212.577194,242.591064 
	C218.561935,246.537689 224.803436,246.466064 230.921265,243.007111 
	C236.091949,240.083694 239.130844,232.997009 238.276596,227.210159 
	C237.095840,219.211380 232.771240,214.277145 223.955307,212.573166 
z"/>
<path fill="#000000" opacity="1.000000" stroke="none" 
	d="
M116.697418,253.830200 
	C116.671387,237.703644 116.832100,222.060211 116.556503,206.424469 
	C116.473358,201.707199 118.128029,200.295364 122.579285,200.607819 
	C131.012329,201.199768 139.538757,199.681137 147.920883,201.708008 
	C164.494522,205.715637 170.246536,219.778595 169.047241,231.895981 
	C167.559662,246.926254 156.535355,256.961487 141.801300,257.298767 
	C134.982895,257.454865 128.157974,257.359344 121.336342,257.321198 
	C119.211273,257.309326 116.748924,257.628845 116.697418,253.830200 
M130.283356,221.605606 
	C130.285675,227.596390 130.466827,233.594360 130.226120,239.575363 
	C130.071152,243.426086 131.309189,245.212112 135.320084,244.756943 
	C137.129898,244.551544 138.985580,244.779633 140.805801,244.631317 
	C148.603287,243.995987 154.242218,238.394791 154.748215,230.866898 
	C155.490906,219.818039 149.470657,213.468170 138.098602,213.305756 
	C130.321030,213.194672 130.321030,213.194687 130.283356,221.605606 
z"/>
<path fill="#000000" opacity="1.000000" stroke="none" 
	d="
M233.970596,296.245483 
	C198.309036,296.243286 163.143295,296.262909 127.977768,296.187103 
	C125.639610,296.182068 122.208794,297.450439 121.215744,294.654816 
	C119.894737,290.935944 119.996902,286.641998 121.252548,282.865387 
	C121.945457,280.781342 124.821228,281.685211 126.730774,281.682068 
	C154.729904,281.636200 182.729156,281.650085 210.728378,281.650482 
	C220.394775,281.650604 230.064346,281.797302 239.726074,281.585663 
	C243.820374,281.495941 245.665741,282.924561 245.230759,287.047180 
	C245.178635,287.541321 245.230347,288.046326 245.232086,288.546295 
	C245.258926,296.215637 245.258850,296.215881 237.466400,296.241150 
	C236.466431,296.244385 235.466446,296.243713 233.970596,296.245483 
z"/>
<path fill="#000000" opacity="1.000000" stroke="none" 
	d="
M383.298035,217.448868 
	C378.052002,217.715118 373.229034,217.919403 368.405914,217.923904 
	C334.592743,217.955475 300.779572,217.964706 266.966522,217.904938 
	C264.812897,217.901138 261.584473,218.865295 261.000885,215.857452 
	C260.288544,212.185501 259.915192,208.213669 261.411163,204.579453 
	C261.947296,203.277069 263.788757,203.667816 265.086365,203.667297 
	C303.563416,203.651962 342.040497,203.684113 380.517395,203.612686 
	C383.959381,203.606308 385.551086,204.886292 385.175629,208.291275 
	C384.842407,211.312668 386.324432,214.639847 383.298035,217.448868 
z"/>
<path fill="#000000" opacity="1.000000" stroke="none" 
	d="
M326.394958,250.937958 
	C323.839447,247.729248 324.957886,244.343140 325.002106,241.106659 
	C325.032867,238.850784 326.906555,238.683746 328.636017,238.683090 
	C342.615997,238.677826 356.595978,238.704041 370.575897,238.681961 
	C373.049530,238.678040 374.036285,239.747360 374.269714,242.252243 
	C375.050873,250.635178 374.503723,251.290939 366.032104,251.345062 
	C355.046631,251.415237 356.408600,250.095657 356.339966,260.800720 
	C356.277008,270.619720 356.185242,280.442139 356.382843,290.257477 
	C356.462067,294.193298 355.051697,295.456390 351.157776,295.428223 
	C342.710968,295.367096 342.701538,295.549438 342.693237,287.077515 
	C342.683105,276.758789 342.566772,266.437927 342.751373,256.122528 
	C342.818298,252.381927 341.465912,251.075287 337.798981,251.274643 
	C334.156403,251.472672 330.487488,251.187164 326.394958,250.937958 
z"/>
<path fill="#000000" opacity="1.000000" stroke="none" 
	d="
M286.654907,269.999939 
	C286.657440,260.857727 286.782593,252.213013 286.604309,243.574570 
	C286.530060,239.976730 287.676514,238.257751 291.427856,238.640259 
	C292.908447,238.791245 294.423950,238.764160 295.911133,238.652634 
	C299.134033,238.410965 300.323425,239.867294 300.307007,243.041199 
	C300.224457,258.995483 300.230896,274.950531 300.288757,290.904999 
	C300.299988,293.997437 299.219513,295.600189 295.928864,295.359558 
	C294.110291,295.226593 292.271515,295.259247 290.447296,295.339813 
	C287.664215,295.462738 286.630432,294.144958 286.659058,291.440094 
	C286.732819,284.460815 286.665802,277.480103 286.654907,269.999939 
z"/>
</svg>