<?xml version="1.0" standalone="no"?>
<!DOCTYPE svg PUBLIC "-//W3C//DTD SVG 20010904//EN"
 "http://www.w3.org/TR/2001/REC-SVG-20010904/DTD/svg10.dtd">
<svg version="1.0" xmlns="http://www.w3.org/2000/svg"
 width="1100.000000pt" height="1100.000000pt" viewBox="0 0 1100.000000 1100.000000"
 preserveAspectRatio="xMidYMid meet">

<g transform="translate(0.000000,1100.000000) scale(0.100000,-0.100000)"
fill="#000000" stroke="none">
<path d="M4705 6609 c-16 -5 -46 -15 -65 -21 -160 -51 -284 -155 -356 -298
-21 -41 -41 -84 -44 -95 -41 -117 -40 -336 1 -417 5 -10 9 -24 9 -33 0 -15 38
-87 73 -140 64 -96 230 -209 349 -238 49 -12 328 -14 373 -3 135 34 319 162
370 259 7 12 21 38 32 57 20 35 43 100 62 176 17 65 13 200 -9 287 -45 180
-163 328 -320 405 -47 22 -105 47 -130 53 -56 16 -305 21 -345 8z m254 -260
c73 -24 144 -65 178 -104 132 -152 131 -382 -2 -524 -69 -74 -160 -111 -270
-111 -146 0 -278 76 -332 191 -72 153 -46 344 62 451 47 48 115 88 148 88 12
0 29 5 37 10 21 13 136 12 179 -1z"/>
<path d="M2560 6595 c0 -3 0 -278 0 -612 l0 -608 289 -3 c267 -2 297 -1 368
18 180 48 321 152 394 290 57 106 85 232 75 332 -10 107 -18 153 -27 162 -5 6
-9 18 -9 27 0 9 -17 47 -37 85 -68 123 -203 234 -333 273 -123 37 -167 41
-443 41 -152 0 -277 -2 -277 -5z m599 -271 c24 -8 57 -22 74 -31 39 -20 108
-90 126 -128 7 -17 19 -40 24 -53 15 -31 14 -224 0 -254 -6 -13 -18 -39 -27
-59 -8 -20 -35 -54 -59 -76 -40 -37 -61 -50 -140 -82 -17 -6 -89 -11 -177 -11
l-150 0 0 348 c0 192 3 352 7 355 14 14 277 7 322 -9z"/>
<path d="M5722 6388 c2 -79 6 -142 11 -140 4 1 615 2 1357 2 l1350 0 0 140 0
140 -1360 0 -1361 0 3 -142z"/>
<path d="M6300 5755 c0 -3 0 -276 0 -607 l0 -603 135 -3 135 -3 0 611 0 610
-135 0 c-74 0 -135 -2 -135 -5z"/>
<path d="M7140 5758 c-1 -2 -2 -58 -3 -125 -2 -95 1 -124 11 -128 8 -3 97 -5
198 -5 l184 0 0 -480 0 -480 140 0 140 0 0 480 0 480 193 2 192 3 3 128 3 127
-531 0 c-291 0 -530 -1 -530 -2z"/>
<path d="M2642 4668 l3 -143 1355 0 1355 0 3 143 3 142 -1361 0 -1361 0 3
-142z"/>
</g>
</svg>
